# Blender v2.75 (sub 0) OBJ File: ''
# www.blender.org
o Icosphere
v -0.615120 0.786887 -0.809809
v 0.350863 1.096233 -0.532782
v 0.225808 0.262541 -1.161181
v -0.624451 -0.264184 -0.836839
v -1.024880 0.243988 -0.007988
v -0.422098 1.084766 0.179924
v 0.938555 0.236331 -0.388596
v 0.335773 -0.604447 -0.576508
v -0.437187 -0.615913 0.136197
v -0.312132 0.217779 0.764596
v 0.538126 0.744503 0.440254
v 0.528795 -0.306568 0.413225
v -0.221256 0.574674 -1.123701
v -0.147751 1.064703 -0.754341
v 0.346536 0.756502 -0.960871
v -0.034293 1.239790 -0.172591
v -0.602083 1.057963 -0.335426
v -0.721023 0.265073 -0.933061
v -0.226741 -0.043133 -1.139592
v -0.956387 0.563769 -0.445877
v -0.961874 -0.054038 -0.461765
v -0.842933 0.738857 0.135875
v 0.530113 1.039793 -0.019569
v 0.075780 1.033053 0.399347
v 0.691975 0.251065 -0.876123
v 0.765483 0.741099 -0.506760
v -0.162105 -0.552734 -0.795932
v 0.337669 -0.243135 -0.986577
v -0.851808 -0.260780 0.110175
v -0.616438 -0.559473 -0.377015
v -0.423994 0.723454 0.589993
v -0.778300 0.229254 0.479538
v 0.875549 0.534357 0.065181
v 0.756608 -0.258538 -0.532459
v -0.052032 -0.759471 -0.223994
v -0.432861 -0.276182 0.564286
v 0.140416 0.523452 0.743007
v 0.870062 -0.083450 0.049293
v 0.634698 0.215246 0.536476
v 0.515758 -0.577644 -0.061158
v 0.061426 -0.584383 0.357756
v 0.134931 -0.094355 0.727117
vn -0.270800 0.605000 -0.748800
vn 0.073400 0.950900 -0.300500
vn -0.494000 0.293600 -0.818400
vn -0.780400 0.289300 -0.554400
vn -0.734000 0.598100 -0.321600
vn 0.337400 0.941200 -0.014300
vn 0.513700 0.211600 -0.831500
vn -0.281100 -0.560800 -0.778800
vn -0.948500 -0.308600 0.071000
vn -0.566300 0.619700 0.543400
vn 0.648900 0.747000 -0.144500
vn 0.510200 -0.177700 -0.841500
vn -0.432900 -0.761900 -0.481700
vn -0.877000 -0.198300 0.437600
vn -0.208400 0.734300 0.646000
vn 0.989300 -0.012500 0.145600
vn 0.635600 -0.750000 -0.183000
vn -0.073400 -0.950900 0.300500
vn -0.158000 -0.337700 0.927900
vn 0.498800 0.242300 0.832200
vn 0.494000 -0.293600 0.818400
vn 0.370900 -0.027200 0.928300
vn 0.065300 -0.026200 0.997500
vn 0.270800 -0.605000 0.748800
vn -0.038200 -0.597800 0.800700
vn -0.221700 -0.762700 0.607500
vn 0.419100 -0.793200 0.441800
vn 0.233600 -0.942700 0.238200
vn 0.320700 -0.945100 -0.062800
vn 0.734000 -0.598100 0.321600
vn 0.810700 -0.585200 0.018000
vn 0.942900 -0.321300 -0.087200
vn 0.780400 -0.289300 0.554400
vn 0.895600 -0.019400 0.444500
vn 0.785100 0.246600 0.568200
vn 0.281100 0.560800 0.778800
vn -0.027900 0.556500 0.830400
vn -0.152400 0.292300 0.944100
vn -0.513700 -0.211600 0.831500
vn -0.689900 -0.366900 0.624000
vn -0.577400 -0.636700 0.511100
vn -0.337400 -0.941200 0.014300
vn -0.250200 -0.924900 -0.286200
vn 0.056700 -0.935400 -0.349000
vn 0.566300 -0.619700 -0.543400
vn 0.683600 -0.346500 -0.642400
vn 0.873600 -0.191100 -0.447600
vn 0.948500 0.308600 -0.071000
vn 0.820900 0.569000 0.047700
vn 0.744400 0.567700 0.351600
vn -0.510200 0.177700 0.841500
vn -0.683600 0.346500 0.642400
vn -0.873600 0.191100 0.447600
vn -0.648900 -0.747000 0.144500
vn -0.820900 -0.569000 -0.047700
vn -0.744400 -0.567700 -0.351600
vn 0.208400 -0.734300 -0.646000
vn 0.027900 -0.556500 -0.830400
vn 0.152400 -0.292300 -0.944100
vn 0.877000 0.198300 -0.437600
vn 0.689900 0.366900 -0.624000
vn 0.577400 0.636700 -0.511100
vn 0.432900 0.761900 0.481700
vn 0.250200 0.924900 0.286200
vn -0.056700 0.935400 0.349000
vn -0.635600 0.750000 0.183000
vn -0.810700 0.585200 -0.018000
vn -0.942900 0.321300 0.087200
vn -0.989300 0.012500 -0.145600
vn -0.895600 0.019400 -0.444500
vn -0.785100 -0.246600 -0.568200
vn -0.498800 -0.242300 -0.832200
vn -0.370900 0.027200 -0.928300
vn -0.065300 0.026200 -0.997500
vn -0.320700 0.945100 0.062800
vn -0.233600 0.942700 -0.238200
vn -0.419100 0.793200 -0.441800
vn 0.158000 0.337700 -0.927900
vn 0.038200 0.597800 -0.800700
vn 0.221700 0.762700 -0.607500
s off
f 1//1 14//1 13//1
f 2//2 14//2 16//2
f 1//3 13//3 18//3
f 1//4 18//4 20//4
f 1//5 20//5 17//5
f 2//6 16//6 23//6
f 3//7 15//7 25//7
f 4//8 19//8 27//8
f 5//9 21//9 29//9
f 6//10 22//10 31//10
f 2//11 23//11 26//11
f 3//12 25//12 28//12
f 4//13 27//13 30//13
f 5//14 29//14 32//14
f 6//15 31//15 24//15
f 7//16 33//16 38//16
f 8//17 34//17 40//17
f 9//18 35//18 41//18
f 10//19 36//19 42//19
f 11//20 37//20 39//20
f 39//21 42//21 12//21
f 39//22 37//22 42//22
f 37//23 10//23 42//23
f 42//24 41//24 12//24
f 42//25 36//25 41//25
f 36//26 9//26 41//26
f 41//27 40//27 12//27
f 41//28 35//28 40//28
f 35//29 8//29 40//29
f 40//30 38//30 12//30
f 40//31 34//31 38//31
f 34//32 7//32 38//32
f 38//33 39//33 12//33
f 38//34 33//34 39//34
f 33//35 11//35 39//35
f 24//36 37//36 11//36
f 24//37 31//37 37//37
f 31//38 10//38 37//38
f 32//39 36//39 10//39
f 32//40 29//40 36//40
f 29//41 9//41 36//41
f 30//42 35//42 9//42
f 30//43 27//43 35//43
f 27//44 8//44 35//44
f 28//45 34//45 8//45
f 28//46 25//46 34//46
f 25//47 7//47 34//47
f 26//48 33//48 7//48
f 26//49 23//49 33//49
f 23//50 11//50 33//50
f 31//51 32//51 10//51
f 31//52 22//52 32//52
f 22//53 5//53 32//53
f 29//54 30//54 9//54
f 29//55 21//55 30//55
f 21//56 4//56 30//56
f 27//57 28//57 8//57
f 27//58 19//58 28//58
f 19//59 3//59 28//59
f 25//60 26//60 7//60
f 25//61 15//61 26//61
f 15//62 2//62 26//62
f 23//63 24//63 11//63
f 23//64 16//64 24//64
f 16//65 6//65 24//65
f 17//66 22//66 6//66
f 17//67 20//67 22//67
f 20//68 5//68 22//68
f 20//69 21//69 5//69
f 20//70 18//70 21//70
f 18//71 4//71 21//71
f 18//72 19//72 4//72
f 18//73 13//73 19//73
f 13//74 3//74 19//74
f 16//75 17//75 6//75
f 16//76 14//76 17//76
f 14//77 1//77 17//77
f 13//78 15//78 3//78
f 13//79 14//79 15//79
f 14//80 2//80 15//80
